<svg width="24" height="24" viewBox="0 0 24 24" fill="none" xmlns="http://www.w3.org/2000/svg">
<path fill-rule="evenodd" clip-rule="evenodd" d="M8.60515 20.3383C8.97062 19.9242 9.60255 19.8848 10.0166 20.2503C10.5461 20.7176 11.2392 21 12.0007 21C12.7622 21 13.4553 20.7176 13.9848 20.2503C14.3989 19.8848 15.0308 19.9242 15.3963 20.3383C15.7617 20.7523 15.7223 21.3843 15.3083 21.7497C14.4275 22.5272 13.2681 23 12.0007 23C10.7333 23 9.57397 22.5272 8.69316 21.7497C8.27909 21.3843 8.23969 20.7523 8.60515 20.3383Z" fill="#5F27FF"/>
<path fill-rule="evenodd" clip-rule="evenodd" d="M7.05097 3.05025C8.36372 1.7375 10.1442 1 12.0007 1C13.8572 1 15.6377 1.7375 16.9505 3.05025C18.2632 4.36301 19.0007 6.14349 19.0007 8C19.0007 10.9127 19.7327 12.8439 20.5001 14.0771L20.512 14.0962C20.8693 14.6704 21.1517 15.1243 21.3421 15.4547C21.4375 15.6202 21.5245 15.7797 21.5888 15.9215C21.621 15.9922 21.6569 16.079 21.685 16.1733C21.7083 16.2515 21.7527 16.4187 21.7361 16.6223C21.7249 16.7591 21.697 16.9928 21.5628 17.2343C21.4287 17.4758 21.2449 17.623 21.1347 17.7047C20.8844 17.8904 20.597 17.9329 20.5011 17.947L20.4966 17.9477C20.3492 17.9695 20.1819 17.9804 20.0132 17.9869C19.6779 18 19.2138 18 18.6366 18H5.36486C4.78764 18 4.3235 18 3.98824 17.9869C3.81949 17.9804 3.65221 17.9695 3.5048 17.9477L3.50037 17.947C3.40444 17.9329 3.11701 17.8904 2.86672 17.7047C2.75648 17.623 2.57275 17.4758 2.4386 17.2343C2.30445 16.9928 2.27656 16.7591 2.26537 16.6223C2.24872 16.4187 2.29312 16.2515 2.31643 16.1733C2.34452 16.079 2.38046 15.9922 2.41259 15.9215C2.47695 15.7797 2.56389 15.6202 2.65931 15.4547C2.84973 15.1243 3.13221 14.6703 3.48954 14.0961L3.50133 14.0771C4.26871 12.8439 5.00071 10.9127 5.00071 8C5.00071 6.14348 5.73821 4.36301 7.05097 3.05025Z" fill="#5F27FF"/>
</svg>
