<svg width="24" height="24" viewBox="0 0 24 24" fill="none" xmlns="http://www.w3.org/2000/svg">
<path fill-rule="evenodd" clip-rule="evenodd" d="M11.0001 20.0002C11.0001 19.448 11.4478 19.0002 12.0001 19.0002H21.0001C21.5524 19.0002 22.0001 19.448 22.0001 20.0002C22.0001 20.5525 21.5524 21.0002 21.0001 21.0002H12.0001C11.4478 21.0002 11.0001 20.5525 11.0001 20.0002Z" fill="#5F27FF"/>
<path fill-rule="evenodd" clip-rule="evenodd" d="M15.793 2.79312C17.012 1.57417 18.9883 1.57417 20.2072 2.79312C21.4262 4.01207 21.4262 5.98838 20.2072 7.20733L7.64449 19.7701C7.6247 19.7899 7.60508 19.8095 7.58562 19.829C7.29817 20.117 7.04474 20.3709 6.7392 20.5581C6.47078 20.7226 6.17815 20.8438 5.87204 20.9173C5.52359 21.001 5.16484 21.0007 4.75794 21.0003C4.7304 21.0003 4.70264 21.0002 4.67464 21.0002H3.0001C2.44782 21.0002 2.0001 20.5525 2.0001 20.0002V18.3257C2.0001 18.2977 2.00008 18.2699 2.00005 18.2424C1.99967 17.8355 1.99934 17.4768 2.08299 17.1283C2.15648 16.8222 2.2777 16.5296 2.44218 16.2612C2.62942 15.9556 2.88333 15.7022 3.17132 15.4147C3.19081 15.3953 3.21046 15.3757 3.23026 15.3559L15.793 2.79312Z" fill="#5F27FF"/>
</svg>
