<svg width="24" height="24" viewBox="0 0 24 24" fill="none" xmlns="http://www.w3.org/2000/svg">
<path fill-rule="evenodd" clip-rule="evenodd" d="M12.5228 1.33709C12.1805 1.24441 11.8197 1.24441 11.4774 1.33709C11.0801 1.44468 10.7455 1.70733 10.4785 1.91696L10.4039 1.97538L3.54388 7.31085C3.16725 7.60314 2.83544 7.86064 2.58818 8.19494C2.37119 8.48832 2.20954 8.81883 2.11118 9.17023C1.9991 9.57065 1.99955 9.99066 2.00007 10.4674L2.00014 17.8393C2.00012 18.3664 2.00011 18.8212 2.03071 19.1957C2.06301 19.5911 2.13433 19.9843 2.32712 20.3627C2.61474 20.9272 3.07368 21.3861 3.63817 21.6737C4.01655 21.8665 4.40977 21.9378 4.80511 21.9701C5.17968 22.0008 5.63443 22.0007 6.16157 22.0007H17.8387C18.3658 22.0007 18.8206 22.0008 19.1952 21.9701C19.5905 21.9378 19.9837 21.8665 20.3621 21.6737C20.9266 21.3861 21.3855 20.9272 21.6732 20.3627C21.866 19.9843 21.9373 19.5911 21.9696 19.1957C22.0002 18.8212 22.0002 18.3664 22.0001 17.8393L22.0002 10.4674C22.0007 9.99066 22.0012 9.57065 21.8891 9.17023C21.7907 8.81883 21.6291 8.48832 21.4121 8.19494C21.1648 7.86064 20.833 7.60313 20.4564 7.31085L13.5964 1.97538L13.5218 1.91697C13.2547 1.70733 12.9202 1.44468 12.5228 1.33709ZM9.09459 13.7515C8.95693 13.2166 8.41175 12.8946 7.8769 13.0323C7.34205 13.17 7.02006 13.7151 7.15772 14.25C7.71272 16.4063 9.66897 18.0007 12.0001 18.0007C14.3313 18.0007 16.2876 16.4063 16.8426 14.25C16.9802 13.7151 16.6582 13.17 16.1234 13.0323C15.5885 12.8946 15.0433 13.2166 14.9057 13.7515C14.5726 15.0456 13.3966 16.0007 12.0001 16.0007C10.6036 16.0007 9.42768 15.0456 9.09459 13.7515Z" fill="#5F27FF"/>
</svg>
